<svg width="135" height="21" viewBox="0 0 135 21" fill="none" xmlns="http://www.w3.org/2000/svg">
<path d="M18.0719 15.528C18.0719 17.2346 17.5386 18.5253 16.4719 19.4C15.4266 20.2746 13.5706 20.712 10.9039 20.712H0.919922V0.455969H10.5839C12.3546 0.455969 13.7306 0.647969 14.7119 1.03197C15.7146 1.39463 16.4186 1.93863 16.8239 2.66397C17.2293 3.3893 17.4319 4.29597 17.4319 5.38397C17.4319 6.8773 17.0693 8.03997 16.3439 8.87197C15.6399 9.68264 14.3066 10.1733 12.3439 10.344V10.44C13.7946 10.5466 14.9359 10.792 15.7679 11.176C16.5999 11.5386 17.1866 12.072 17.5279 12.776C17.8906 13.48 18.0719 14.3973 18.0719 15.528ZM9.17592 4.48797H6.03992V8.45597H9.17592C10.2213 8.45597 10.9786 8.32797 11.4479 8.07197C11.9173 7.79464 12.1519 7.2613 12.1519 6.47197C12.1519 5.70397 11.9173 5.1813 11.4479 4.90397C10.9786 4.62664 10.2213 4.48797 9.17592 4.48797ZM9.81592 12.648H6.03992V16.712H9.81592C10.8613 16.712 11.6186 16.5733 12.0879 16.296C12.5573 15.9973 12.7919 15.4533 12.7919 14.664C12.7919 13.8533 12.5573 13.32 12.0879 13.064C11.6186 12.7866 10.8613 12.648 9.81592 12.648Z" fill="white"/>
<path d="M26.0712 20.712H20.9512V0.455969H26.0712V20.712Z" fill="white"/>
<path d="M43.0399 0.455969H48.1599V20.712H43.0719L37.3119 12.136C36.8639 11.4533 36.4906 10.8773 36.1919 10.408C35.8933 9.93864 35.6159 9.4693 35.3599 8.99997C35.1039 8.53064 34.8159 7.97597 34.4959 7.33597L34.3999 7.46397C34.6986 8.48797 34.8799 9.44797 34.9439 10.344C35.0079 11.2186 35.0399 12.072 35.0399 12.904V20.712H29.9199V0.455969H35.0079L40.7679 9.03197C41.2159 9.6933 41.5893 10.2693 41.8879 10.76C42.1866 11.2293 42.4639 11.6986 42.7199 12.168C42.9759 12.6373 43.2639 13.192 43.5839 13.832L43.6799 13.704C43.4666 12.808 43.3066 11.944 43.1999 11.112C43.0933 10.2586 43.0399 9.41597 43.0399 8.58397V0.455969Z" fill="white"/>
<path d="M70.5737 20.616V20.712H65.1337C64.9843 20.2 64.803 19.6133 64.5897 18.952C64.3977 18.2906 64.1843 17.5866 63.9497 16.84H57.0377C56.611 18.3333 56.2163 19.624 55.8537 20.712H50.4137V20.648L56.9737 0.455969H64.0137L70.5737 20.616ZM60.4297 4.10397C60.2163 5.19197 59.907 6.51464 59.5017 8.07197C59.0963 9.6293 58.6697 11.2186 58.2217 12.84H62.7977C62.3283 11.2186 61.891 9.6293 61.4857 8.07197C61.0803 6.51464 60.771 5.19197 60.5577 4.10397H60.4297Z" fill="white"/>
<path d="M89.9782 15.528C89.9782 17.2346 89.4448 18.5253 88.3782 19.4C87.3328 20.2746 85.4768 20.712 82.8102 20.712H72.8262V0.455969H82.4902C84.2608 0.455969 85.6368 0.647969 86.6182 1.03197C87.6208 1.39463 88.3248 1.93863 88.7302 2.66397C89.1355 3.3893 89.3382 4.29597 89.3382 5.38397C89.3382 6.8773 88.9755 8.03997 88.2502 8.87197C87.5462 9.68264 86.2128 10.1733 84.2502 10.344V10.44C85.7008 10.5466 86.8422 10.792 87.6742 11.176C88.5062 11.5386 89.0928 12.072 89.4342 12.776C89.7968 13.48 89.9782 14.3973 89.9782 15.528ZM81.0822 4.48797H77.9462V8.45597H81.0822C82.1275 8.45597 82.8848 8.32797 83.3542 8.07197C83.8235 7.79464 84.0582 7.2613 84.0582 6.47197C84.0582 5.70397 83.8235 5.1813 83.3542 4.90397C82.8848 4.62664 82.1275 4.48797 81.0822 4.48797ZM81.7222 12.648H77.9462V16.712H81.7222C82.7675 16.712 83.5248 16.5733 83.9942 16.296C84.4635 15.9973 84.6982 15.4533 84.6982 14.664C84.6982 13.8533 84.4635 13.32 83.9942 13.064C83.5248 12.7866 82.7675 12.648 81.7222 12.648Z" fill="white"/>
<path d="M92.2174 10.568C92.2174 7.98664 92.5054 5.93864 93.0814 4.42397C93.6788 2.9093 94.6921 1.8213 96.1214 1.15997C97.5721 0.498636 99.5881 0.167969 102.169 0.167969C104.111 0.167969 105.721 0.349302 107.001 0.711969C108.281 1.07464 109.295 1.6613 110.041 2.47197C110.788 3.28264 111.311 4.35997 111.609 5.70397C111.929 7.02664 112.089 8.64797 112.089 10.568C112.089 12.5093 111.929 14.152 111.609 15.496C111.311 16.8186 110.788 17.8853 110.041 18.696C109.295 19.5066 108.281 20.0933 107.001 20.456C105.721 20.8186 104.111 21 102.169 21C100.228 21 98.6174 20.8186 97.3374 20.456C96.0574 20.0933 95.0441 19.5066 94.2974 18.696C93.5508 17.8853 93.0174 16.8186 92.6974 15.496C92.3774 14.152 92.2174 12.5093 92.2174 10.568ZM102.169 16.52C103.535 16.52 104.559 16.3493 105.241 16.008C105.924 15.6666 106.383 15.0693 106.617 14.216C106.852 13.3413 106.969 12.1253 106.969 10.568C106.969 9.03197 106.852 7.8373 106.617 6.98397C106.383 6.13064 105.924 5.5333 105.241 5.19197C104.559 4.8293 103.535 4.64797 102.169 4.64797C100.825 4.64797 99.8014 4.8293 99.0974 5.19197C98.4147 5.5333 97.9454 6.13064 97.6894 6.98397C97.4548 7.8373 97.3374 9.03197 97.3374 10.568C97.3374 12.1253 97.4548 13.3413 97.6894 14.216C97.9454 15.0693 98.4147 15.6666 99.0974 16.008C99.8014 16.3493 100.825 16.52 102.169 16.52Z" fill="white"/>
<path d="M128.351 10.376L134.271 20.712H127.871L124.191 13.544H124.095L120.415 20.712H114.015L119.935 10.376V10.216L114.399 0.455969H120.703L124.095 7.49597H124.191L127.583 0.455969H133.887L128.351 10.216V10.376Z" fill="white"/>
</svg>
