<svg width="56" height="56" viewBox="0 0 56 56" fill="none" xmlns="http://www.w3.org/2000/svg">
<rect width="56" height="56" rx="6" fill="#0D0D15"/>
<path d="M45.6379 29.0675V35.0071C45.6379 35.0755 45.6366 35.144 45.6325 35.2124C45.6312 35.2259 45.6312 35.2406 45.6299 35.254C45.6272 35.2943 45.6245 35.3346 45.6205 35.3762C45.6164 35.4165 45.6124 35.4567 45.607 35.497C45.603 35.5359 45.5963 35.5748 45.5909 35.6124C45.5815 35.6702 45.5721 35.7265 45.5601 35.7842C45.5534 35.8205 45.5453 35.8554 45.5372 35.8916C45.5292 35.9225 45.5211 35.9547 45.5131 35.9869C45.5064 36.0165 45.4983 36.0446 45.4889 36.0742C45.4527 36.2044 45.4084 36.3332 45.3574 36.4594C45.3466 36.4863 45.3359 36.5144 45.3238 36.5413C45.293 36.6151 45.2594 36.6876 45.2232 36.7587C45.2057 36.795 45.1869 36.8299 45.1681 36.8648L45.1668 36.8634L38.4473 33.1238L27.9238 27.2661L35.8379 23.6232L45.4956 28.9896L45.6379 29.0675Z" fill="url(#paint0_linear_1_2790)"/>
<path d="M45.5194 17.9829L43.471 19.5615L41.6576 22.4125L24.416 12.8151L30.9677 8.21381L34.9274 10.5011H34.9288L42.1851 14.6903L43.6872 15.5574C44.612 16.0917 45.2643 16.9722 45.5194 17.9829Z" fill="url(#paint1_linear_1_2790)"/>
<path d="M34.9275 10.501L10 24.7815V18.9373C10 17.5426 10.7436 16.254 11.9503 15.5574L25.8685 7.52248C27.0752 6.82584 28.5624 6.82584 29.7705 7.52248L34.9275 10.501Z" fill="#0265DC"/>
<path d="M45.6376 18.9373V20.9655L13.4376 39.246L11.9503 38.387C10.7436 37.689 10 36.4017 10 35.0071V32.9829L42.1852 14.6903L43.6872 15.5574C44.894 16.2541 45.6376 17.5427 45.6376 18.9373Z" fill="#0265DC"/>
<path d="M45.6364 28.9064V35.007C45.6364 35.0755 45.6351 35.144 45.631 35.2124C45.6297 35.2258 45.6297 35.2406 45.6283 35.254C45.6257 35.2943 45.623 35.3346 45.619 35.3762C45.6149 35.4164 45.6109 35.4567 45.6055 35.497C45.6015 35.5359 45.5948 35.5748 45.5894 35.6124C45.58 35.6701 45.5706 35.7265 45.5586 35.7842C45.5518 35.8205 45.5438 35.8554 45.5357 35.8916C45.5277 35.9225 45.5196 35.9547 45.5116 35.9869C45.5049 36.0164 45.4968 36.0446 45.4874 36.0742C45.4512 36.2044 45.4069 36.3332 45.3559 36.4594C45.3451 36.4862 45.3344 36.5144 45.3223 36.5413C45.2914 36.6151 45.2579 36.6876 45.2216 36.7587C45.2042 36.795 45.1854 36.8299 45.1666 36.8648C45.1451 36.9037 45.1237 36.9426 45.1008 36.9802C45.0794 37.0191 45.0552 37.0567 45.0324 37.0943C44.9841 37.1681 44.9344 37.2419 44.882 37.3131C44.8284 37.3856 44.7733 37.4554 44.7169 37.5225C44.6874 37.5574 44.6579 37.5909 44.6283 37.6232C44.5988 37.6567 44.5679 37.6889 44.5371 37.7211C44.4753 37.7856 44.4109 37.8487 44.3438 37.9077C44.3183 37.9319 44.2914 37.9547 44.2646 37.9775C44.2485 37.9909 44.2324 38.0044 44.2163 38.0178C44.1841 38.046 44.1505 38.0728 44.1156 38.0983C44.082 38.1252 44.0485 38.1507 44.0122 38.1748C43.9451 38.2245 43.8753 38.2715 43.8042 38.3158C43.7653 38.3399 43.7263 38.3641 43.6861 38.3869L29.7693 46.4218C28.5612 47.1185 27.074 47.1185 25.8673 46.4218L20.7773 43.4836L38.4458 33.1238L45.4941 28.9896L45.6364 28.9064Z" fill="#0265DC"/>
<path d="M16.9987 12.6433V41.301L13.4376 39.246L11.9503 38.3869C10.7436 37.6889 10 36.4017 10 35.0071V18.9373C10 17.5426 10.7436 16.254 11.9503 15.5574L16.9987 12.6433Z" fill="#0265DC"/>
<defs>
<linearGradient id="paint0_linear_1_2790" x1="44.5641" y1="33.4433" x2="30.2688" y2="23.6446" gradientUnits="userSpaceOnUse">
<stop stop-color="#0265DC"/>
<stop offset="1" stop-color="#0265DC" stop-opacity="0"/>
</linearGradient>
<linearGradient id="paint1_linear_1_2790" x1="42.2147" y1="19.8863" x2="29.2617" y2="11.497" gradientUnits="userSpaceOnUse">
<stop stop-color="#0265DC"/>
<stop offset="1" stop-color="#0265DC" stop-opacity="0"/>
</linearGradient>
</defs>
</svg>
